<svg width="49" height="40" viewBox="0 0 49 40" fill="none" xmlns="http://www.w3.org/2000/svg">
<path d="M6.75989 31.5553H16.3157V37.2888C16.3157 38.3443 15.4601 39.2 14.4046 39.2H8.67106C7.61555 39.2 6.75989 38.3443 6.75989 37.2888V31.5553Z" fill="#999999"/>
<path d="M33.632 31.5553H43.1879V37.2888C43.1879 38.3443 42.3322 39.2 41.2767 39.2H35.5432C34.4877 39.2 33.632 38.3443 33.632 37.2888V31.5553Z" fill="#999999"/>
<path d="M42.9465 17.2215H46.2911C47.6105 17.2215 48.6801 16.1519 48.6801 14.8325C48.6801 13.5131 47.6105 12.4435 46.2911 12.4435H3.28972C1.97033 12.4435 0.900757 13.5131 0.900757 14.8325C0.900757 16.1519 1.97033 17.2215 3.28972 17.2215H42.9465Z" fill="#DDDDDD"/>
<path d="M40.1083 5.42002C39.9582 4.64535 39.6017 3.9256 39.0763 3.33684C38.9611 3.19776 38.8331 3.06979 38.6941 2.95461C37.9733 2.2966 37.0326 1.93189 36.0567 1.93213H13.5239C11.5149 1.98112 9.81948 3.44065 9.47225 5.42002L6.63416 17.2215H7.58974L24.7903 19.1327L42.9464 17.2215L40.1083 5.42002Z" fill="#11B2EA"/>
<path d="M38.6941 2.95461C32.4923 3.31773 7.58974 5.50602 7.58974 17.2215H6.63416L9.47225 5.42002C9.81948 3.44065 11.5149 1.98112 13.5239 1.93213H36.0566C37.0326 1.93189 37.9733 2.2966 38.6941 2.95461Z" fill="#009CD8"/>
<path d="M42.9465 18.1771C42.5049 18.177 42.121 17.8744 42.0176 17.4451L39.1815 5.64364C38.9356 4.09603 37.6267 2.9402 36.0605 2.88773H13.5202C11.9642 2.93642 10.6599 4.07893 10.4069 5.61498L7.564 17.4451C7.4405 17.9586 6.92411 18.2748 6.4106 18.1513C5.8971 18.0278 5.58093 17.5114 5.70443 16.9979L8.54538 5.19643C8.98459 2.78313 11.0675 1.01626 13.5202 0.976562H36.0605C38.5246 1.01801 40.6142 2.79879 41.0458 5.2251L43.8763 16.9979C43.9448 17.2827 43.879 17.5832 43.6976 17.8132C43.5162 18.0432 43.2394 18.1773 42.9465 18.1771Z" fill="#DDDDDD"/>
<path d="M6.63426 17.2216H42.9465C45.0576 17.2216 46.7689 18.9329 46.7689 21.0439V31.5553C46.7689 32.6109 45.9132 33.4665 44.8577 33.4665H4.72309C3.66758 33.4665 2.81192 32.6109 2.81192 31.5553V21.0439C2.81192 18.9329 4.52324 17.2216 6.63426 17.2216Z" fill="#DDDDDD"/>
<path d="M9.95465 29.6441H11.8658C12.3936 29.6441 12.8214 30.0719 12.8214 30.5997V33.4664H8.99906V30.5997C8.99906 30.0719 9.42689 29.6441 9.95465 29.6441Z" fill="#D6B36A"/>
<path d="M37.9465 29.6441H39.8577C40.3854 29.6441 40.8133 30.0719 40.8133 30.5997V33.4664H36.9909V30.5997C36.9909 30.0719 37.4187 29.6441 37.9465 29.6441Z" fill="#D6B36A"/>
<path d="M29.5683 25.8218H20.0125C19.4847 25.8218 19.0569 26.2496 19.0569 26.7774V28.6885C19.0569 29.2163 19.4847 29.6441 20.0125 29.6441H29.5683C30.0961 29.6441 30.5239 29.2163 30.5239 28.6885V26.7774C30.5239 26.2496 30.0961 25.8218 29.5683 25.8218Z" fill="#999999"/>
<path d="M7.71547 21.0438H12.4934C14.0767 21.0438 15.3602 22.3273 15.3602 23.9106V24.8662C15.3602 25.3939 14.9323 25.8218 14.4046 25.8218H7.71547C7.18772 25.8218 6.75989 25.3939 6.75989 24.8662V21.9994C6.75989 21.4717 7.18772 21.0438 7.71547 21.0438Z" fill="white"/>
<path d="M42.1938 25.8218H35.5047C34.9769 25.8218 34.5491 25.3939 34.5491 24.8662V23.9106C34.5491 22.3273 35.8326 21.0439 37.4159 21.0439H42.1938C42.7216 21.0439 43.1494 21.4717 43.1494 21.9994V24.8662C43.1494 25.3939 42.7216 25.8218 42.1938 25.8218Z" fill="white"/>
</svg>
