<svg width="48" height="44" viewBox="0 0 48 44" fill="none" xmlns="http://www.w3.org/2000/svg">
<path d="M46.9128 14.6978H0.512789C0.0127892 14.6978 -0.187211 13.9978 0.212789 13.7978L22.7128 0.297796C23.0284 0.103105 23.3919 0 23.7628 0C24.1336 0 24.4972 0.103105 24.8128 0.297796L47.3128 13.7978C47.6128 13.9978 47.4128 14.6978 46.9128 14.6978Z" fill="#DDDDDD"/>
<path d="M43.713 14.6978H3.71299V16.6978C3.70415 16.8314 3.72396 16.9654 3.77109 17.0907C3.81821 17.216 3.89158 17.3299 3.98626 17.4245C4.08094 17.5192 4.19476 17.5926 4.32009 17.6397C4.44542 17.6868 4.57938 17.7067 4.71299 17.6978H42.713C42.8466 17.7067 42.9806 17.6868 43.1059 17.6397C43.2312 17.5926 43.345 17.5192 43.4397 17.4245C43.5344 17.3299 43.6078 17.216 43.6549 17.0907C43.702 16.9654 43.7218 16.8314 43.713 16.6978V14.6978Z" fill="#11B2EA"/>
<path d="M42.713 36.6978H4.71299C4.57938 36.689 4.44542 36.7088 4.32009 36.7559C4.19476 36.803 4.08094 36.8764 3.98626 36.9711C3.89158 37.0657 3.81821 37.1796 3.77109 37.3049C3.72396 37.4302 3.70415 37.5642 3.71299 37.6978V39.6978H43.713V37.6978C43.7218 37.5642 43.702 37.4302 43.6549 37.3049C43.6078 37.1796 43.5344 37.0657 43.4397 36.9711C43.345 36.8764 43.2312 36.803 43.1059 36.7559C42.9806 36.7088 42.8466 36.689 42.713 36.6978Z" fill="#11B2EA"/>
<path d="M45.713 39.6978H1.71299C1.57938 39.689 1.44542 39.7088 1.32009 39.7559C1.19476 39.803 1.08094 39.8764 0.986257 39.9711C0.891575 40.0657 0.818214 40.1796 0.771086 40.3049C0.723957 40.4302 0.704149 40.5642 0.712988 40.6978V43.6978H46.713V40.6978C46.7218 40.5642 46.702 40.4302 46.6549 40.3049C46.6078 40.1796 46.5344 40.0657 46.4397 39.9711C46.345 39.8764 46.2312 39.803 46.1059 39.7559C45.9806 39.7088 45.8466 39.689 45.713 39.6978Z" fill="#DDDDDD"/>
<path d="M27.713 19.6978V17.6978H19.713V19.6978C19.7041 19.8314 19.724 19.9654 19.7711 20.0907C19.8182 20.216 19.8916 20.3299 19.9863 20.4245C20.0809 20.5192 20.1948 20.5926 20.3201 20.6397C20.4454 20.6868 20.5794 20.7067 20.713 20.6978V33.6978C20.5794 33.689 20.4454 33.7088 20.3201 33.7559C20.1948 33.803 20.0809 33.8764 19.9863 33.9711C19.8916 34.0658 19.8182 34.1796 19.7711 34.3049C19.724 34.4303 19.7041 34.5642 19.713 34.6978V36.6978H27.713V34.6978C27.7218 34.5642 27.702 34.4303 27.6549 34.3049C27.6078 34.1796 27.5344 34.0658 27.4397 33.9711C27.345 33.8764 27.2312 33.803 27.1059 33.7559C26.9806 33.7088 26.8466 33.689 26.713 33.6978V20.6978C26.8466 20.7067 26.9806 20.6868 27.1059 20.6397C27.2312 20.5926 27.345 20.5192 27.4397 20.4245C27.5344 20.3299 27.6078 20.216 27.6549 20.0907C27.702 19.9654 27.7218 19.8314 27.713 19.6978Z" fill="#DDDDDD"/>
<path d="M14.713 19.6978V17.6978H6.71299V19.6978C6.70415 19.8314 6.72396 19.9654 6.77109 20.0907C6.81821 20.216 6.89158 20.3299 6.98626 20.4245C7.08094 20.5192 7.19476 20.5926 7.32009 20.6397C7.44542 20.6868 7.57938 20.7067 7.71299 20.6978V33.6978C7.57938 33.689 7.44542 33.7088 7.32009 33.7559C7.19476 33.803 7.08094 33.8764 6.98626 33.9711C6.89158 34.0658 6.81821 34.1796 6.77109 34.3049C6.72396 34.4303 6.70415 34.5642 6.71299 34.6978V36.6978H14.713V34.6978C14.7218 34.5642 14.702 34.4303 14.6549 34.3049C14.6078 34.1796 14.5344 34.0658 14.4397 33.9711C14.345 33.8764 14.2312 33.803 14.1059 33.7559C13.9806 33.7088 13.8466 33.689 13.713 33.6978V20.6978C13.8466 20.7067 13.9806 20.6868 14.1059 20.6397C14.2312 20.5926 14.345 20.5192 14.4397 20.4245C14.5344 20.3299 14.6078 20.216 14.6549 20.0907C14.702 19.9654 14.7218 19.8314 14.713 19.6978Z" fill="#DDDDDD"/>
<path d="M40.713 19.6978V17.6978H32.713V19.6978C32.7041 19.8314 32.724 19.9654 32.7711 20.0907C32.8182 20.216 32.8916 20.3299 32.9863 20.4245C33.0809 20.5192 33.1948 20.5926 33.3201 20.6397C33.4454 20.6868 33.5794 20.7067 33.713 20.6978V33.6978C33.5794 33.689 33.4454 33.7088 33.3201 33.7559C33.1948 33.803 33.0809 33.8764 32.9863 33.9711C32.8916 34.0658 32.8182 34.1796 32.7711 34.3049C32.724 34.4303 32.7041 34.5642 32.713 34.6978V36.6978H40.713V34.6978C40.7218 34.5642 40.702 34.4303 40.6549 34.3049C40.6078 34.1796 40.5344 34.0658 40.4397 33.9711C40.345 33.8764 40.2312 33.803 40.1059 33.7559C39.9806 33.7088 39.8466 33.689 39.713 33.6978V20.6978C39.8466 20.7067 39.9806 20.6868 40.1059 20.6397C40.2312 20.5926 40.345 20.5192 40.4397 20.4245C40.5344 20.3299 40.6078 20.216 40.6549 20.0907C40.702 19.9654 40.7218 19.8314 40.713 19.6978Z" fill="#DDDDDD"/>
</svg>
