<svg width="46" height="34" viewBox="0 0 46 34" fill="none" xmlns="http://www.w3.org/2000/svg">
<path d="M-7.62939e-05 4C-7.62939e-05 1.79086 1.79078 0 3.99992 0H41.9999C44.2091 0 45.9999 1.79086 45.9999 4V30C45.9999 32.2091 44.2091 34 41.9999 34H3.99992C1.79078 34 -7.62939e-05 32.2091 -7.62939e-05 30V4Z" fill="#009CD8"/>
<path d="M22.9999 0H41.9999C44.2091 0 45.9999 1.79086 45.9999 4V30C45.9999 32.2091 44.2091 34 41.9999 34H22.9999V0Z" fill="#11B2EA"/>
<path d="M42.167 10.5833H26.8336V12.5H42.167V10.5833Z" fill="#F4F4F4"/>
<path d="M42.167 15.0555H26.8336V16.9722H42.167V15.0555Z" fill="#F4F4F4"/>
<path d="M15.9719 14.7362C15.9719 17.0296 14.1128 18.8889 11.8191 18.8889C9.52541 18.8889 7.66635 17.0296 7.66635 14.7362C7.66635 12.4426 9.52541 10.5833 11.8191 10.5833C14.1128 10.5833 15.9719 12.4426 15.9719 14.7362Z" fill="white"/>
<path d="M7.66677 6.43065C7.66677 7.66552 6.66574 8.66668 5.43066 8.66668C4.19558 8.66668 3.19455 7.66552 3.19455 6.43065C3.19455 5.19562 4.19558 4.19446 5.43066 4.19446C6.66574 4.19446 7.66677 5.19562 7.66677 6.43065Z" fill="#E8BA69"/>
<path d="M29.0208 20.1667C28.3051 20.1667 27.7689 20.6369 27.5522 21.155C27.3355 21.673 27.3209 22.2307 27.337 22.6942C27.3741 23.7635 27.7897 24.842 28.4023 25.6895C28.4273 25.724 28.4639 25.7429 28.4896 25.7767C28.166 26.0227 27.7995 26.1905 27.337 26.1905C27.2712 26.1895 27.2059 26.2018 27.1449 26.2266C27.0839 26.2514 27.0283 26.2882 26.9815 26.3349C26.9347 26.3817 26.8975 26.4373 26.8721 26.4987C26.8467 26.56 26.8336 26.6259 26.8336 26.6924C26.8336 26.759 26.8467 26.8248 26.8721 26.8862C26.8975 26.9476 26.9347 27.0032 26.9815 27.0499C27.0283 27.0966 27.0839 27.1335 27.1449 27.1583C27.2059 27.1831 27.2712 27.1954 27.337 27.1944C28.0751 27.1944 28.6611 26.8744 29.1681 26.4542C29.6554 26.8733 30.1909 27.1944 30.8111 27.1944C31.4342 27.1944 31.9686 26.9033 32.4367 26.5346C32.8152 26.8989 33.2497 27.1944 33.789 27.1944C34.1584 27.1944 34.4471 27.0587 34.6798 26.8817C34.8231 27.0359 35.0249 27.1944 35.2779 27.1944C35.4018 27.1954 35.5215 27.1495 35.6136 27.0657C35.7057 26.9819 35.7635 26.8663 35.7757 26.7416C35.7878 26.6169 35.7534 26.4922 35.6793 26.3918C35.6051 26.2915 35.4965 26.2228 35.3748 26.1993C35.3617 26.1736 35.3424 26.1376 35.3254 26.0689C35.2822 25.8943 35.2779 25.6885 35.2779 25.6885C35.276 25.5566 35.2229 25.4307 35.1301 25.3381C35.0372 25.2455 34.912 25.1935 34.7816 25.1935C34.6512 25.1935 34.526 25.2455 34.4331 25.3381C34.3402 25.4307 34.2871 25.5566 34.2853 25.6885C34.2853 25.6885 34.2784 25.8347 34.2135 25.9659C34.1487 26.0972 34.1198 26.1905 33.789 26.1905C33.6113 26.1905 33.3707 26.0414 33.1327 25.8326C33.5098 25.3301 33.789 24.771 33.789 24.1825C33.789 23.8608 33.7308 23.5243 33.5389 23.2217C33.347 22.9191 32.9682 22.6766 32.5472 22.6766C32.1263 22.6766 31.7491 22.919 31.5575 23.2217C31.366 23.5245 31.3074 23.8611 31.3074 24.1825C31.3074 24.7329 31.5247 25.2711 31.8193 25.764C31.4952 26.0083 31.1456 26.1905 30.8111 26.1905C30.5227 26.1905 30.1902 26.0108 29.8592 25.7502C29.8902 25.7056 29.9436 25.6803 29.9727 25.6346C30.5294 24.7565 30.7929 23.6778 30.8111 22.6864V22.6854C30.819 22.2522 30.7735 21.6933 30.5329 21.1736C30.2924 20.6539 29.7545 20.1667 29.0208 20.1667ZM29.0208 21.1706C29.3824 21.1706 29.4984 21.3063 29.6344 21.6001C29.7703 21.8938 29.8245 22.339 29.8185 22.6678C29.8038 23.4619 29.5721 24.3533 29.1662 25.0247C28.6933 24.344 28.3572 23.4547 28.3296 22.6589C28.3159 22.2631 28.3529 21.8172 28.4663 21.5462C28.5797 21.2751 28.6515 21.1706 29.0208 21.1706ZM32.5472 23.6806C32.6613 23.6806 32.6565 23.6891 32.7033 23.7629C32.7501 23.8368 32.7964 24.0023 32.7964 24.1825C32.7964 24.3729 32.7076 24.628 32.5734 24.8914C32.474 24.6401 32.3001 24.3778 32.3001 24.1825C32.3001 24.002 32.3465 23.8366 32.3931 23.7629C32.4398 23.6892 32.4332 23.6806 32.5472 23.6806Z" fill="#F4F4F4"/>
<path d="M4.47221 26.316C4.47221 22.9198 7.22535 20.1667 10.6215 20.1667H13.0174C16.4135 20.1667 19.1667 22.9198 19.1667 26.316C19.1667 26.8012 18.7734 27.1945 18.2882 27.1945H5.35069C4.86552 27.1945 4.47221 26.8012 4.47221 26.316Z" fill="white"/>
</svg>
