<svg width="48" height="48" viewBox="0 0 48 48" fill="none" xmlns="http://www.w3.org/2000/svg">
<path d="M47.9948 33.9298C47.9948 38.4971 47.2501 42.2039 46.34 42.2039C40.7871 41.3165 35.1816 40.7968 29.5602 40.6484L27.5082 39.672C28.6516 37.6415 28.2244 35.0885 26.4822 33.5409C26.4574 30.7939 27.7399 28.4441 27.2186 27.2774C33.6231 27.1979 40.0136 26.6559 46.34 25.6557C47.2501 25.6557 47.9948 29.3625 47.9948 33.9298Z" fill="#DDDDDD"/>
<path d="M12.4164 14.1215L0.559613 9.88522C0.232386 9.76645 0.0144958 9.45557 0.0144958 9.10745C0.0144958 8.75934 0.232386 8.44846 0.559613 8.32969L23.7105 0.0556175C23.8979 -0.0105639 24.1023 -0.0105639 24.2897 0.0556175L47.4405 8.32969C47.7677 8.44846 47.9856 8.75934 47.9856 9.10745C47.9856 9.45557 47.7677 9.76645 47.4405 9.88522L42.1451 11.78L39.8532 12.5991L35.5838 14.1215H12.4164Z" fill="#009CD8"/>
<path d="M1.7759 42.1797L1.66006 42.2045C1.70006 42.2051 1.73967 42.1966 1.7759 42.1797Z" fill="#F8E8AB"/>
<path d="M1.75935 25.6723C1.72598 25.6686 1.69284 25.663 1.66006 25.6557C1.69371 25.6572 1.72705 25.6627 1.75935 25.6723Z" fill="#F8E8AB"/>
<path d="M1.76758 25.6722C7.72299 26.6107 13.7359 27.1387 19.7637 27.2526C20.3098 28.4606 22.3452 31.0007 22.3452 33.9297C22.3452 34.1283 22.3452 34.3186 22.3369 34.5089C21.315 36.0603 21.2448 38.0524 22.1549 39.6719L20.1112 40.5986C13.9705 40.706 7.84436 41.234 1.77585 42.179L1.76758 25.6722Z" fill="#DDDDDD"/>
<path d="M20.6822 34.5091C20.6904 34.3188 20.6904 34.1285 20.6904 33.93C20.782 31.6668 20.4682 29.4055 19.7637 27.2528C21.1207 27.2941 22.5355 27.3107 24.0001 27.3107C25.1005 27.3107 26.1761 27.3024 27.2187 27.2776C27.8866 29.296 28.1947 31.4161 28.1288 33.5411L20.6822 34.5091Z" fill="#46AC3B"/>
<path d="M24.8275 42.2038L22.6266 47.4744C22.5042 47.787 22.2052 47.9946 21.8696 48C21.534 48.0055 21.2283 47.8076 21.0959 47.4992L20.4919 46.1092L19.1018 46.7049C18.7961 46.839 18.4396 46.7747 18.2 46.5423C17.9603 46.3099 17.8851 45.9556 18.0097 45.6459L20.1113 40.5987L20.5002 39.672L24.8275 42.2038Z" fill="#46AC3B"/>
<path d="M29.1548 39.672L29.5602 40.6483L31.6453 45.6459C31.7699 45.9556 31.6946 46.3099 31.455 46.5423C31.2153 46.7747 30.8588 46.839 30.5531 46.7049L29.163 46.1092L28.559 47.4992C28.4266 47.8076 28.121 48.0055 27.7854 48C27.4498 47.9946 27.1507 47.787 27.0283 47.4744L24.8274 42.2038L29.1548 39.672Z" fill="#46AC3B"/>
<path d="M12.4164 19.8643V10.7628C12.4164 9.3893 17.6042 8.28058 24.0001 8.28058C30.3959 8.28058 35.5838 9.3893 35.5838 10.7628V19.8643H12.4164Z" fill="#11B2EA"/>
<path d="M41.3756 12.4173C40.9187 12.4173 40.5482 12.0468 40.5482 11.5899V6.16206C40.5482 5.7051 40.9187 5.33466 41.3756 5.33466C41.8326 5.33466 42.203 5.7051 42.203 6.16206V11.5899C42.203 12.0468 41.8326 12.4173 41.3756 12.4173Z" fill="#D6B36A"/>
<path d="M39.7209 13.2445V15.7267C39.7209 16.1837 40.0913 16.5541 40.5483 16.5541H42.2031C42.66 16.5541 43.0305 16.1837 43.0305 15.7267V13.2445C43.0305 12.3305 42.2896 11.5897 41.3757 11.5897C40.4617 11.5897 39.7209 12.3305 39.7209 13.2445Z" fill="#D6B36A"/>
<path d="M24.0001 22.3463C30.3976 22.3463 35.5838 21.235 35.5838 19.8641C35.5838 18.4932 30.3976 17.3819 24.0001 17.3819C17.6026 17.3819 12.4164 18.4932 12.4164 19.8641C12.4164 21.235 17.6026 22.3463 24.0001 22.3463Z" fill="#009CD8"/>
<path d="M3.31482 33.93C3.31482 38.2987 2.63634 41.8814 1.77584 42.1793C1.73961 42.1962 1.7 42.2047 1.66 42.2041C0.749855 42.2041 0.00518799 38.4973 0.00518799 33.93C0.00518799 29.3627 0.749855 25.656 1.66 25.656C1.6691 25.6549 1.67821 25.6579 1.68482 25.6642C1.70137 25.6642 1.7262 25.6725 1.75929 25.6725H1.76757C2.62807 25.9621 3.31482 29.5448 3.31482 33.93Z" fill="#999999"/>
<path d="M29.7919 37.2392C29.7919 39.981 27.5693 42.2036 24.8275 42.2036C22.0857 42.2036 19.863 39.981 19.863 37.2392C19.863 34.4974 22.0857 32.2747 24.8275 32.2747C26.0478 32.2676 27.2262 32.7195 28.1288 33.5407C29.1878 34.4781 29.7935 35.8249 29.7919 37.2392Z" fill="#D6B36A"/>
</svg>
