<svg width="64" height="64" viewBox="0 0 64 64" fill="none" xmlns="http://www.w3.org/2000/svg">
<path d="M7 42C7 37.0294 11.0294 33 16 33H25C29.9706 33 34 37.0294 34 42V49C34 53.4183 30.4183 57 26 57H7V42Z" fill="#11B2EA"/>
<path d="M7 42C7 37.0294 11.0294 33 16 33H25C29.9706 33 34 37.0294 34 42V49C34 53.4183 30.4183 57 26 57H7V42Z" fill="#11B2EA"/>
<path d="M27 33H24C24 33 23.5 35 20 35C16.5 35 16 33 16 33H13L20 40L27 33Z" fill="#009CD8"/>
<path d="M36.2781 41.3825L39.6667 40.5332L40.178 41.0445C40.958 41.8245 42.024 42.2665 43.1333 42.2665C44.2427 42.2665 45.3087 41.8245 46.0886 41.0445L46.6 40.5332L52.4066 41.9805C52.8052 42.0759 53.1779 42.2145 53.5332 42.3879C55.6132 43.3758 56.9999 45.4905 56.9999 47.8738V56.9997L55.9252 55.3877C54.3566 53.0304 52.2419 51.0804 49.7633 49.7024C48.4373 48.9745 47.0333 48.4111 45.586 48.0385C44.1387 47.6571 42.6307 47.4665 41.1227 47.4665H40.5334C40.5334 45.8198 39.8054 44.2598 38.5401 43.2025L36.8674 41.8159C36.6767 41.6599 36.4861 41.5125 36.2781 41.3825Z" fill="#4ABF3A"/>
<path d="M43.9999 54.4001C43.9999 53.6807 43.7052 53.0307 43.2372 52.5627C42.7692 52.0948 42.1192 51.8001 41.3999 51.8001H36.2L40.5332 47.4668H41.1226C42.6306 47.4668 44.1385 47.6575 45.5859 48.0388C47.0332 48.4115 48.4372 48.9748 49.7632 49.7028C52.2418 51.0808 54.3564 53.0307 55.9251 55.3881L56.9997 57H41.3999C42.8386 57 43.9999 55.8387 43.9999 54.4001Z" fill="#F4F4F4"/>
<path d="M10.8233 20.2352L10.182 17.6699C10.0607 17.1846 10 16.6819 10 16.1706C10 14.472 10.6933 12.9293 11.8113 11.8113C12.9293 10.6933 14.472 10 16.1706 10H30.7998C31.2765 10 31.6665 10.39 31.6665 10.8667V13.0593C31.6665 15.5553 31.0945 18.0166 30.0025 20.2612L10.8233 20.2352Z" fill="#999999"/>
<path d="M32.7333 40.5417V32.3604V26.6665C32.7333 20.9206 37.3872 16.2666 43.1332 16.2666C46.0105 16.2666 48.6105 17.4279 50.4911 19.3086C52.3718 21.1892 53.5331 23.7892 53.5331 26.6665V42.3877C53.1777 42.2143 52.8051 42.0757 52.4064 41.9803L46.5998 40.533L45.8025 36.5377C48.3071 35.4891 50.0664 33.0191 50.0664 30.1331V27.2818C50.0664 25.9472 49.0525 24.8292 47.7265 24.6992L45.7938 24.5085C43.8352 24.3092 42.1452 23.1739 41.2092 21.5272L39.3892 22.1339C38.9992 22.2639 38.6266 22.4459 38.2799 22.6799C36.9799 23.5465 36.1999 25.0025 36.1999 26.5625V30.1331C36.1999 32.0484 36.9799 33.7818 38.2279 35.0384C38.8605 35.6711 39.6232 36.1824 40.4639 36.5377L39.6665 40.533L36.2779 41.3824C35.6972 41.0184 35.0559 40.767 34.3886 40.637C34.0419 40.5677 33.6953 40.533 33.3399 40.533H33.0453C32.9413 40.533 32.8373 40.533 32.7333 40.5504V40.5417Z" fill="#BC9A5E"/>
<path d="M34.3887 40.6372L32.3347 43.3845C32.0314 43.7832 31.8667 44.2685 31.8667 44.7712C31.8667 45.3865 32.1094 45.9758 32.5427 46.4091L33.7041 47.5705C34.1894 48.0558 34.4667 48.7231 34.4667 49.4078V51.7998H31.0001L29.1454 49.9451C28.7294 49.5291 28.3828 49.0438 28.1228 48.5238C27.7414 47.7611 27.5334 46.9118 27.5334 46.0451C27.5334 44.5198 28.1488 43.1505 29.1454 42.1452C30.0814 41.2179 31.3294 40.6199 32.7334 40.5505C32.8374 40.5332 32.9414 40.5332 33.0454 40.5332H33.3401C33.6954 40.5332 34.0421 40.5679 34.3887 40.6372Z" fill="#999999"/>
<path d="M27.3332 19.5348V18.6682C27.3332 17.2295 26.1718 16.0682 24.7332 16.0682H20.5386C19.7326 16.0682 18.9612 15.8169 18.3459 15.3662V15.3749L15.7026 15.7475C14.42 15.9295 13.4666 17.0302 13.4666 18.3215V19.5348L12.6 19.5339C11.9066 19.5339 11.2827 19.8025 10.8233 20.2359C10.312 20.7125 10 21.3885 10 22.1339C10 22.8532 10.2947 23.5032 10.7627 23.9712C11.2307 24.4392 11.8806 24.7338 12.6 24.7338H13.5186C13.718 26.3025 14.4373 27.7065 15.4946 28.7725C16.1273 29.4051 16.8899 29.9164 17.7306 30.2718C18.5539 30.6098 19.4552 30.8004 20.3999 30.8004C21.3446 30.8004 22.2459 30.6098 23.0692 30.2718C25.3139 29.3358 26.9692 27.2385 27.2812 24.7338H28.1999C28.9192 24.7338 29.5692 24.4392 30.0372 23.9712C30.5052 23.5032 30.7999 22.8532 30.7999 22.1339C30.7999 21.3972 30.4965 20.7299 30.0025 20.2619C29.5345 19.8112 28.9019 19.5339 28.1999 19.5339L27.3332 19.5348Z" fill="#DDDDDD"/>
<path d="M50.0665 27.282V30.1333C50.0665 33.0192 48.3072 35.4892 45.8025 36.5379C44.9792 36.8759 44.0779 37.0665 43.1332 37.0665C42.1886 37.0665 41.2872 36.8759 40.4639 36.5379C39.6232 36.1825 38.8606 35.6712 38.2279 35.0385C36.9799 33.7819 36.2 32.0486 36.2 30.1333V26.5626C36.2 25.0026 36.9799 23.5467 38.2799 22.68C38.6266 22.446 38.9993 22.264 39.3893 22.134L41.2092 21.5273C42.1452 23.174 43.8352 24.3093 45.7939 24.5086L47.7265 24.6993C49.0525 24.8293 50.0665 25.9473 50.0665 27.282Z" fill="#DDDDDD"/>
<path d="M45.8024 36.5381L46.5998 40.5334L46.0884 41.0447C45.3084 41.8247 44.2425 42.2667 43.1331 42.2667C42.0238 42.2667 40.9578 41.8247 40.1778 41.0447L39.6665 40.5334L40.4638 36.5381C41.2872 36.8761 42.1885 37.0667 43.1331 37.0667C44.0778 37.0667 44.9791 36.8761 45.8024 36.5381Z" fill="#DDDDDD"/>
<path d="M16 33L18.1333 25H22.4L24 33C24 33 24 35 20.2667 35C16.5333 35 16 33 16 33Z" fill="#DDDDDD"/>
<path d="M40.5333 47.467L36.2 51.8003H34.4667V49.4083C34.4667 48.7236 34.1893 48.0563 33.704 47.571L32.5427 46.4096C32.1094 45.9763 31.8667 45.387 31.8667 44.7717C31.8667 44.269 32.0314 43.7837 32.3347 43.385L34.3887 40.6377C35.056 40.7677 35.6973 41.019 36.278 41.383C36.486 41.513 36.6767 41.6604 36.8673 41.8164L38.54 43.203C39.8053 44.2603 40.5333 45.8203 40.5333 47.467Z" fill="#DDDDDD"/>
<path d="M36.1999 51.7994H41.3999C42.1192 51.7994 42.7692 52.0941 43.2372 52.5621C43.7052 53.0301 43.9999 53.6801 43.9999 54.3994C43.9999 55.838 42.8385 56.9994 41.3999 56.9994H24.8C24.8 55.6214 24.8 54.2819 25.0461 53.0474H25.0547C25.5227 51.2274 26.606 49.6328 28.1227 48.5234C28.3827 49.0434 28.7294 49.5288 29.1453 49.9448L31 51.7994H34.4666H36.1999Z" fill="#DDDDDD"/>
</svg>
