<svg width="51" height="50" viewBox="0 0 51 50" fill="none" xmlns="http://www.w3.org/2000/svg">
<path d="M6.8862 3.44233V10.4744H0V3.44233C0 1.54135 1.54135 0 3.44377 0C4.39422 0 5.25483 0.386058 5.87811 1.008C6.50149 1.63128 6.8862 2.49189 6.8862 3.44233Z" fill="#009CD8"/>
<path d="M6.44898 3.09603V42H41V9.42066V3.09603C41 2.2412 40.6147 1.46717 39.9901 0.906592C39.3655 0.34722 38.5034 0 37.551 0H3C3.95225 0 4.8145 0.34722 5.43906 0.906592C6.06353 1.46717 6.44898 2.2412 6.44898 3.09603Z" fill="#DDDDDD"/>
<path d="M25.3225 11.8358H11.3493C11.0658 11.8358 10.8359 11.6142 10.8359 11.3409V5.33069C10.8359 5.05741 11.0658 4.83582 11.3493 4.83582H25.3226C25.6061 4.83582 25.8359 5.05741 25.8359 5.33069V11.3409C25.8358 11.6142 25.606 11.8358 25.3225 11.8358Z" fill="white"/>
<path d="M41.0883 49.6716L41.7028 49.3857C47.1626 46.8453 50.6542 41.3696 50.6542 35.3477V30.7105H48.9146C46.0426 30.7105 43.2713 29.6525 41.1299 27.7386L41.0883 27.7015L41.0468 27.7386C38.9054 29.6525 36.134 30.7105 33.2621 30.7105H31.5225V35.3477C31.5225 41.3696 35.014 46.8452 40.4739 49.3857L41.0883 49.6716Z" fill="#4ABF3A"/>
<path d="M41.0884 49.6716L41.7029 49.3857C47.1627 46.8453 50.6543 41.3696 50.6543 35.3477V30.7105H48.9147C46.0427 30.7105 43.2713 29.6525 41.13 27.7386L41.0884 27.7015V49.6716Z" fill="#46AC3B"/>
<path d="M44.884 37.1873H42.5063V34.8096H39.6704V37.1873H37.2927V40.0231H39.6704V42.4009H42.5063V40.0231H44.884V37.1873Z" fill="white"/>
<path d="M44.884 37.1873H42.5063V34.8096H41.0884V42.4009H42.5063V40.0231H44.884V37.1873Z" fill="white"/>
<rect x="10.8359" y="14.8358" width="15.7612" height="2" rx="1" fill="#009CD8"/>
<rect x="28.5972" y="14.8358" width="7.64179" height="2" rx="1" fill="#009CD8"/>
<rect x="10.8359" y="19.8358" width="13.8507" height="2" rx="1" fill="#009CD8"/>
<rect x="28.5972" y="19.8358" width="7.64179" height="2" rx="1" fill="#009CD8"/>
<rect x="10.8359" y="24.8358" width="15.7612" height="2" rx="1" fill="#009CD8"/>
<rect x="28.5972" y="24.8358" width="7.64179" height="2" rx="1" fill="#009CD8"/>
<rect x="10.8359" y="29.8358" width="10.9851" height="2" rx="1" fill="#009CD8"/>
</svg>
