<svg width="64" height="64" viewBox="0 0 64 64" fill="none" xmlns="http://www.w3.org/2000/svg">
<path d="M52 13H46V10H40V13H12L8 29H11V54H53V29H56L52 13Z" fill="#DDDDDD"/>
<path d="M44 35H20V51H44V35Z" fill="#009CD8"/>
<path d="M23 51H20V54H22L23 51Z" fill="#009CD8"/>
<path d="M41 51H44V54H42L41 51Z" fill="#009CD8"/>
<path d="M40.8 47.8H23.2V38.2H40.8V47.8ZM24.8 46.2H39.2V39.8H24.8V46.2Z" fill="white"/>
<path d="M29 42.19H27V43.81H29V42.19Z" fill="white"/>
<path d="M37 35H31L30 27H38L37 35Z" fill="#D6B36A"/>
<path d="M39.19 19.78C38.2984 19.5932 37.3743 19.6316 36.5013 19.8918C35.6283 20.152 34.8339 20.6256 34.19 21.27C33.8696 21.5868 33.5907 21.943 33.36 22.33C32.8513 21.838 32.2301 21.4778 31.5503 21.2808C30.8705 21.0838 30.1529 21.0561 29.46 21.2C29.3116 21.9038 29.3409 22.6334 29.5452 23.3231C29.7494 24.0127 30.1223 24.6406 30.63 25.15C31.1997 25.7163 31.9169 26.1113 32.7 26.29C33.051 26.3683 33.4105 26.4019 33.77 26.39C35.2173 26.406 36.612 25.8478 37.6486 24.8375C38.6851 23.8272 39.2789 22.4473 39.3 21C39.3094 20.5933 39.2691 20.187 39.18 19.79L39.19 19.78Z" fill="#4ABF3A"/>
</svg>
