<svg width="49" height="47" viewBox="0 0 49 47" fill="none" xmlns="http://www.w3.org/2000/svg">
<path d="M44.1233 16.3282H42.6233V11.8355C42.6233 11.0058 41.9514 10.3379 41.1234 10.3379H5.12354C2.64256 10.3379 0.623566 12.3536 0.623566 14.8307V41.7872C0.623566 44.2643 2.64256 46.28 5.12354 46.28H44.1233C44.9513 46.28 45.6233 45.6091 45.6233 44.7824V17.8258C45.6233 16.9962 44.9513 16.3282 44.1233 16.3282Z" fill="#DDDDDD"/>
<path d="M47.1236 34.2993H38.1236C35.6396 34.2993 33.6237 32.2866 33.6237 29.8065C33.6237 27.3235 35.6396 25.3138 38.1236 25.3138H47.1236C47.9516 25.3138 48.6236 25.9847 48.6236 26.8114V32.8017C48.6236 33.6284 47.9516 34.2993 47.1236 34.2993Z" fill="#4ABF3A"/>
<mask id="mask0" mask-type="alpha" maskUnits="userSpaceOnUse" x="3" y="0" width="43" height="17">
<path d="M3.58688 0.280029H45.6607V16.2543H6.08688C4.70617 16.2543 3.58688 15.135 3.58688 13.7543V0.280029Z" fill="#C4C4C4"/>
</mask>
<g mask="url(#mask0)">
<path d="M-10.9111 26.8385C-11.7405 25.4042 -11.2492 23.5707 -9.81379 22.7433L22.9646 3.84898C24.4 3.02155 26.2361 3.51351 27.0655 4.94782L35.9137 20.2488C36.7431 21.6831 36.2518 23.5166 34.8164 24.344L1.60482 43.488C0.408607 44.1775 -1.12143 43.7675 -1.81262 42.5723L-10.9111 26.8385Z" fill="#4ABF3A"/>
<ellipse rx="2.36941" ry="2.36751" transform="matrix(0.866372 -0.499399 0.500602 0.865678 25.3316 16.1481)" fill="#46AC3B"/>
<rect width="42.6494" height="29.5939" rx="5" transform="matrix(0.866372 -0.499399 0.500602 0.865678 -2.33932 25.7205)" fill="#11B2EA"/>
<rect width="42.6493" height="7.10253" transform="matrix(0.866372 -0.499399 0.500601 0.865678 0.920197 31.3566)" fill="#009CD8"/>
</g>
<path d="M41.1797 29.9916C41.1797 31.0435 40.3257 31.8965 39.2721 31.8965C38.2185 31.8965 37.3642 31.0435 37.3642 29.9916C37.3642 28.9397 38.2185 28.0871 39.2721 28.0871C40.3257 28.0871 41.1797 28.9397 41.1797 29.9916Z" fill="#DDDDDD"/>
</svg>
