<svg width="170" height="23" viewBox="0 0 170 23" fill="none" xmlns="http://www.w3.org/2000/svg">
<path d="M52.4 22.925H55.4V20.125L56.4 18.925L59.1 22.925H62.7L58.5 16.725L62.6 12.125H59.1L55.4 16.525V12.125H52.4V22.925Z" fill="#4ABF3A"/>
<path d="M63.6 22.925H72.3V20.325H66.5V18.625H71.7V16.325H66.5V14.625H72.2V12.125H63.6V22.925Z" fill="#4ABF3A"/>
<path d="M76.5 17.525V14.725H77.9C79 14.725 79.6 15.225 79.6 16.125C79.6 17.025 79 17.525 77.9 17.525H76.5ZM73.5 22.925H76.5V19.825H78C80.7 19.825 82.6 18.525 82.6 15.925C82.6 13.525 80.9 12.125 78.1 12.125H73.5V22.925Z" fill="#4ABF3A"/>
<path d="M83.5 22.925H92.2V20.325H86.4V18.625H91.6V16.325H86.4V14.625H92.1V12.125H83.5V22.925Z" fill="#4ABF3A"/>
<path d="M93.2 22.925H96.1V16.725L98.8 20.925H98.9L101.6 16.725V22.925H104.6V12.125H101.4L98.9 16.325L96.3 12.125H93.2V22.925Z" fill="#4ABF3A"/>
<path d="M105.6 22.925H114.3V20.325H108.6V18.625H113.7V16.325H108.6V14.625H114.3V12.125H105.6V22.925Z" fill="#4ABF3A"/>
<path d="M118.5 22.925H121.5V14.725H124.7V12.125H115.3V14.725H118.5V22.925Z" fill="#4ABF3A"/>
<path d="M129.8 20.425V18.225H131.8C132.7 18.225 133.2 18.625 133.2 19.325C133.2 20.025 132.7 20.425 131.8 20.425H129.8ZM126.8 22.925H132C134.5 22.925 136.2 21.625 136.2 19.425C136.2 17.125 134.4 15.925 131.9 15.925H129.8V14.725H135.5V12.225H126.9V22.925H126.8Z" fill="#1A9ED9"/>
<path d="M140.7 18.625L141.9 15.525L143.1 18.625H140.7ZM136 22.925H139.1L139.9 21.025H144L144.8 22.925H148L143.4 12.125H140.5L136 22.925Z" fill="#1A9ED9"/>
<path d="M148.7 22.925H151.7V18.825H155.5V22.925H158.5V12.125H155.5V16.125H151.7V12.125H148.7V22.925Z" fill="#1A9ED9"/>
<path d="M159.7 22.925H162.6V20.125L163.7 18.925L166.4 22.925H170L165.8 16.725L169.9 12.125H166.3L162.6 16.525V12.125H159.7V22.925Z" fill="#1A9ED9"/>
<path fill-rule="evenodd" clip-rule="evenodd" d="M12.2 10.325L22.3 0.225C22.6 -0.075 23.2 -0.075 23.5 0.225L33.6 10.325C33.9 10.625 33.9 11.225 33.6 11.525L25.7 19.425L22.9 16.625L20.1 19.425L12.2 11.525C11.9 11.225 11.9 10.725 12.2 10.325Z" fill="#1A9ED9"/>
<path fill-rule="evenodd" clip-rule="evenodd" d="M0.300003 22.325L10.4 12.225C10.7 11.925 11.3 11.925 11.6 12.225L19.5 20.125L16.7 22.925H0C0 22.625 0.100003 22.425 0.300003 22.325Z" fill="#4ABF3A"/>
<path fill-rule="evenodd" clip-rule="evenodd" d="M35.4 12.125L45.5 22.225C45.7 22.425 45.7 22.625 45.7 22.825H29L26.2 20.025L34.1 12.125C34.6 11.825 35.1 11.825 35.4 12.125Z" fill="#4ABF3A"/>
<path fill-rule="evenodd" clip-rule="evenodd" d="M18 22.925L22.9 17.925L27.9 22.925H18Z" fill="#D6B36A"/>
</svg>
